<svg xmlns="http://www.w3.org/2000/svg"  viewBox="0 0 100 100" width="100px" height="100px" baseProfile="basic"><path d="M53,91c-20.953,0-38-17.047-38-38s17.047-38,38-38s38,17.047,38,38S73.953,91,53,91z" opacity=".35"/><circle cx="50" cy="50" r="37" fill="#60a829"/><polygon fill="#fffeee" points="44.45,66.086 27.921,49.558 33.578,43.901 44.564,54.887 66.539,33.914 72.079,39.684"/><linearGradient id="5xyG8jYwyIYSbvCwSSqVYa" x1="42.834" x2="56.945" y1="11.124" y2="87.679" gradientUnits="userSpaceOnUse"><stop offset=".004" stop-color="#ffe8c7"/><stop offset=".349" stop-color="#f9d4a0"/><stop offset="1" stop-color="#ebab4d"/></linearGradient><path fill="url(#5xyG8jYwyIYSbvCwSSqVYa)" d="M50,88c-20.953,0-38-17.047-38-38s17.047-38,38-38s38,17.047,38,38S70.953,88,50,88z M50,14	c-19.851,0-36,16.149-36,36s16.149,36,36,36s36-16.149,36-36S69.851,14,50,14z M44.45,67.086c-0.256,0-0.512-0.098-0.707-0.293	L27.214,50.266c-0.188-0.188-0.293-0.441-0.293-0.707s0.105-0.52,0.293-0.707l5.657-5.657c0.391-0.391,1.023-0.391,1.414,0	l10.296,10.295L65.849,33.19c0.398-0.38,1.03-0.367,1.412,0.031l5.54,5.771c0.184,0.191,0.284,0.448,0.278,0.714	s-0.117,0.518-0.31,0.701L45.141,66.809C44.947,66.994,44.699,67.086,44.45,67.086z M29.335,49.559l15.131,15.129l26.197-25.033	l-4.155-4.328L45.255,55.61c-0.393,0.375-1.013,0.368-1.397-0.017L33.578,45.315L29.335,49.559z"/></svg>