<?xml version="1.0" ?><svg xmlns="http://www.w3.org/2000/svg" width="24" height="24" viewBox="0 0 24 24" fill="none"><g id="number-four"><g id="outline" filter="url(#filter0_d_1701_1101)"><path d="M10.961 3C10.6037 3 10.2736 3.1906 10.095 3.5L5.13397 12.0927C5.04621 12.2447 5 12.4172 5 12.5927V18C5 18.5523 5.44772 19 6 19H11C11.5523 19 12 19.4477 12 20C12 20.5523 12.4477 21 13 21H18C18.5523 21 19 20.5523 19 20V11C19 10.4477 18.5523 10 18 10H16.1572C15.3874 10 14.9062 9.16667 15.2911 8.5L17.6005 4.5C17.9854 3.83333 17.5043 3 16.7345 3H10.961Z" fill="white"/></g><path id="icon" d="M11.5384 5L7 12.8607V17H14V19H17V12H14V14H9.80631L15.0025 5H11.5384Z" fill="#1452CC"/></g><defs><filter id="filter0_d_1701_1101" x="3" y="1.5" width="18" height="22" filterUnits="userSpaceOnUse" color-interpolation-filters="sRGB"><feFlood flood-opacity="0" result="BackgroundImageFix"/><feColorMatrix in="SourceAlpha" type="matrix" values="0 0 0 0 0 0 0 0 0 0 0 0 0 0 0 0 0 0 127 0" result="hardAlpha"/><feOffset dy="0.5"/><feGaussianBlur stdDeviation="1"/><feComposite in2="hardAlpha" operator="out"/><feColorMatrix type="matrix" values="0 0 0 0 0 0 0 0 0 0 0 0 0 0 0 0 0 0 0.25 0"/><feBlend mode="normal" in2="BackgroundImageFix" result="effect1_dropShadow_1701_1101"/><feBlend mode="normal" in="SourceGraphic" in2="effect1_dropShadow_1701_1101" result="shape"/></filter></defs></svg>