<?xml version="1.0" ?><svg xmlns="http://www.w3.org/2000/svg" width="24" height="24" viewBox="0 0 24 24" fill="none"><g id="number-three"><g id="outline" filter="url(#filter0_d_1701_1269)"><path fill-rule="evenodd" clip-rule="evenodd" d="M5 8C5 8.55228 5.44772 9 6 9H7C7.55228 9 8 9.44772 8 10V10.5C8 11.0523 7.55228 11.5 7 11.5H6.00014C5.44784 11.5 5.00012 11.9477 5.00014 12.5L5.00018 13.5001C5.00026 15.2884 5.68407 17.0832 7.05044 18.4496C9.78411 21.1832 14.2163 21.1832 16.9499 18.4496C19.4397 15.9598 19.6618 12.0612 17.6165 9.32007C17.2852 8.87615 17.2808 8.24422 17.6748 7.85498L18.7028 6.83961C18.893 6.65173 19 6.39551 19 6.12816L19 2.99999C19 2.44771 18.5523 2 18 2H6C5.44772 2 5 2.44772 5 3V8ZM11.972 11.5C11.9813 11.4999 11.9907 11.4998 12 11.4998L11.972 11.5Z" fill="white"/></g><path id="icon" d="M7 7H11.4526L10 8.44109V11.5H11.972C12.4932 11.4927 13.0167 11.6879 13.4144 12.0856C14.1955 12.8666 14.1955 14.133 13.4144 14.914C12.6334 15.6951 11.367 15.6951 10.586 14.914C10.1955 14.5235 10.0002 14.0118 10.0002 13.5H7.00018C7.00024 14.7795 7.4884 16.0591 8.46466 17.0353C10.4173 18.988 13.5831 18.988 15.5357 17.0353C17.4883 15.0827 17.4883 11.9169 15.5357 9.96427C15.0329 9.46144 14.4496 9.08809 13.8273 8.84423L17 5.71035L17 4H7V7Z" fill="#1452CC"/></g><defs><filter id="filter0_d_1701_1269" x="3" y="0.5" width="18.0002" height="22.4998" filterUnits="userSpaceOnUse" color-interpolation-filters="sRGB"><feFlood flood-opacity="0" result="BackgroundImageFix"/><feColorMatrix in="SourceAlpha" type="matrix" values="0 0 0 0 0 0 0 0 0 0 0 0 0 0 0 0 0 0 127 0" result="hardAlpha"/><feOffset dy="0.5"/><feGaussianBlur stdDeviation="1"/><feComposite in2="hardAlpha" operator="out"/><feColorMatrix type="matrix" values="0 0 0 0 0 0 0 0 0 0 0 0 0 0 0 0 0 0 0.25 0"/><feBlend mode="normal" in2="BackgroundImageFix" result="effect1_dropShadow_1701_1269"/><feBlend mode="normal" in="SourceGraphic" in2="effect1_dropShadow_1701_1269" result="shape"/></filter></defs></svg>