<?xml version="1.0" ?><svg xmlns="http://www.w3.org/2000/svg" width="24" height="24" viewBox="0 0 24 24" fill="none"><g id="number-two"><g id="outline" filter="url(#filter0_d_1701_1225)"><path fill-rule="evenodd" clip-rule="evenodd" d="M5.00003 10.5C5.00003 11.0523 5.44774 11.5 6.00003 11.5H7.58103C8.47199 11.5 8.91845 12.5776 8.2889 13.208C8.08891 13.4083 7.88897 13.6085 7.68908 13.8087C7.11914 14.3795 6.00491 15.4947 5.29257 16.2074C5.1051 16.3949 5.00003 16.649 5.00003 16.9141V18.75V21H18C18.5523 21 19 20.5523 19 20V14.5209C19 14.2332 18.7668 14 18.4792 14C18.0367 14 17.7821 13.4706 18.0093 13.0909C18.6372 12.0414 19 10.8118 19 9.5C19 5.63401 15.866 2.5 12 2.5C8.13403 2.5 5.00003 5.63401 5.00003 9.5V10.5Z" fill="white"/></g><path id="icon" d="M10 9.5C10 8.39543 10.8954 7.5 12 7.5C13.1046 7.5 14 8.39543 14 9.5C14 10.0525 13.7778 10.5507 13.4142 10.9142C11.2712 13.0473 9.13798 15.1903 7 17.3284L7.0012 17.3292L7 17.33V19H17V16H12.571L15.526 13.045C16.4347 12.1411 17 10.8853 17 9.5C17 6.73858 14.7614 4.5 12 4.5C9.23858 4.5 7 6.73858 7 9.5H10Z" fill="#1452CC"/></g><defs><filter id="filter0_d_1701_1225" x="3" y="1" width="18" height="22.5" filterUnits="userSpaceOnUse" color-interpolation-filters="sRGB"><feFlood flood-opacity="0" result="BackgroundImageFix"/><feColorMatrix in="SourceAlpha" type="matrix" values="0 0 0 0 0 0 0 0 0 0 0 0 0 0 0 0 0 0 127 0" result="hardAlpha"/><feOffset dy="0.5"/><feGaussianBlur stdDeviation="1"/><feComposite in2="hardAlpha" operator="out"/><feColorMatrix type="matrix" values="0 0 0 0 0 0 0 0 0 0 0 0 0 0 0 0 0 0 0.25 0"/><feBlend mode="normal" in2="BackgroundImageFix" result="effect1_dropShadow_1701_1225"/><feBlend mode="normal" in="SourceGraphic" in2="effect1_dropShadow_1701_1225" result="shape"/></filter></defs></svg>