<?xml version="1.0" ?><svg xmlns="http://www.w3.org/2000/svg" width="24" height="24" viewBox="0 0 24 24" fill="none"><g id="number-one"><g id="outline" filter="url(#filter0_d_1701_1378)"><path d="M16 4C16 3.44772 15.5523 3 15 3H10C9.44772 3 9 3.44772 9 4V5.75C9 5.88807 8.88807 6 8.75 6H7C6.44772 6 6 6.44772 6 7V12C6 12.5523 6.44772 13 7 13H8.75C8.8867 13 9 13.1091 9 13.2458V13.5064C9 13.779 8.77902 14 8.50642 14H7C6.44772 14 6 14.4477 6 15V20C6 20.5523 6.44772 21 7 21H18C18.5523 21 19 20.5523 19 20V15C19 14.4477 18.5523 14 18 14H17C16.4477 14 16 13.5523 16 13V4Z" fill="white"/></g><path id="icon" d="M11 5H14V16H17V19H8V16H11V10.4948C10.3181 10.8187 9.5552 11 8.75 11H8V8H8.75C9.99264 8 11 6.99264 11 5.75V5Z" fill="#1452CC"/></g><defs><filter id="filter0_d_1701_1378" x="4" y="1.5" width="17" height="22" filterUnits="userSpaceOnUse" color-interpolation-filters="sRGB"><feFlood flood-opacity="0" result="BackgroundImageFix"/><feColorMatrix in="SourceAlpha" type="matrix" values="0 0 0 0 0 0 0 0 0 0 0 0 0 0 0 0 0 0 127 0" result="hardAlpha"/><feOffset dy="0.5"/><feGaussianBlur stdDeviation="1"/><feComposite in2="hardAlpha" operator="out"/><feColorMatrix type="matrix" values="0 0 0 0 0 0 0 0 0 0 0 0 0 0 0 0 0 0 0.25 0"/><feBlend mode="normal" in2="BackgroundImageFix" result="effect1_dropShadow_1701_1378"/><feBlend mode="normal" in="SourceGraphic" in2="effect1_dropShadow_1701_1378" result="shape"/></filter></defs></svg>